# xmcd
# Track frame offsets:
# 150
# 18682
# 41323
# 59918
# 81650
# 101011
# 125860
# 145215
# 173667
# 194799
# 217126
#
# Disc length: 3296 seconds
# Revision: 0
# Processed by: cddbd v1.4PL0 Copyright (c) Steve Scherf et al.
# Submitted via: VisiTrax 2.9.6.190 - For more info visit www.synapsa.com
#
DISCID=b50cde0b
DTITLE=Crow, Sheryl - The Globe Sessions
DYEAR=1900
DGENRE=
TTITLE0=My Favorite Mistake
TTITLE1=There Goes the Neighborhood
TTITLE2=Riverwide
TTITLE3=Maybe That's Something
TTITLE4=It Don't Hurt
TTITLE5=Am I Getting Through, Pt. 1-2
TTITLE6=Anything But Down
TTITLE7=Difficult Kind
TTITLE8=Mississippi
TTITLE9=Members Only
TTITLE10=Crash and Burn [Work in Progress] [Mix]
EXTD=
EXTT0=
EXTT1=
EXTT2=
EXTT3=
EXTT4=
EXTT5=
EXTT6=
EXTT7=
EXTT8=
EXTT9=
EXTT10=
PLAYORDER=
